<svg width="24" height="24" viewBox="0 0 24 24" fill="none" xmlns="http://www.w3.org/2000/svg">
<path d="M12 22C7.95356 22.0024 4.30449 19.5659 2.75567 15.8276C1.20684 12.0893 2.06354 7.78606 4.926 4.92598C7.4533 2.39868 11.1369 1.41166 14.5893 2.33672C18.0416 3.26177 20.7382 5.95836 21.6633 9.41072C22.5883 12.8631 21.6013 16.5467 19.074 19.074C17.2015 20.955 14.6542 22.0086 12 22ZM4 12.172C4.04732 16.5732 7.64111 20.1095 12.0425 20.086C16.444 20.0622 19.9995 16.4875 19.9995 12.086C19.9995 7.68449 16.444 4.10975 12.0425 4.08598C7.64111 4.06244 4.04732 7.59874 4 12V12.172ZM9.409 16L8 14.59L10.59 12L8 9.40998L9.41 7.99998L12 10.59L14.59 7.99998L16 9.40998L13.41 12L16 14.59L14.591 16L12 13.41L9.41 16H9.409Z" fill="#613768"/>
</svg>
